<svg width="64" height="64" viewBox="0 0 64 64" fill="none" xmlns="http://www.w3.org/2000/svg">
<path d="M14.1173 7.14799C10.2209 9.61351 7.0877 12.8266 4.71778 16.7874C2.0495 21.283 0.715393 26.3542 0.715393 32.0012C0.715393 37.6484 2.0495 42.747 4.71778 47.2974C7.44054 51.7932 11.1708 55.3294 15.9084 57.9062C20.7006 60.4828 26.0642 61.7714 32 61.7714C37.9356 61.7714 43.2722 60.4828 48.0098 57.9062C52.7474 55.3294 56.4776 51.7932 59.2004 47.2974C61.9232 42.747 63.2846 37.6484 63.2846 32.0012C63.2846 26.3542 61.9232 21.283 59.2004 16.7874C56.8482 12.856 53.7438 9.66129 49.8878 7.20316V31.6902C49.889 31.7936 49.8886 31.8972 49.8886 32.0012C49.8886 35.565 49.099 38.7448 47.5198 41.5408C45.995 44.337 43.8712 46.53 41.1486 48.1198C38.4258 49.655 35.3762 50.4226 32 50.4226C28.6238 50.4226 25.5742 49.655 22.8514 48.1198C20.1286 46.53 17.9777 44.337 16.3985 41.5408C14.8738 38.7448 14.1113 35.565 14.1113 32.0012C14.1113 31.819 14.1134 31.6378 14.1173 31.4576V7.14799Z" fill="url(#paint0_linear_211_221)"/>
<path d="M32.0004 2.22874C28.3912 2.22874 25.2986 2.82438 25.2986 2.82438V24.2338C25.2986 27.9602 28.299 30.981 32.0004 30.981C35.7016 30.981 38.7022 27.9602 38.7022 24.2338V2.82438C38.7022 2.82438 35.6094 2.22874 32.0004 2.22874Z" fill="url(#paint1_linear_211_221)"/>
<defs>
<linearGradient id="paint0_linear_211_221" x1="9.14864" y1="7.92411" x2="61.8672" y2="48.8704" gradientUnits="userSpaceOnUse">
<stop stop-color="#CACACA"/>
<stop offset="1" stop-color="#7E7E7E"/>
</linearGradient>
<linearGradient id="paint1_linear_211_221" x1="9.14862" y1="7.92412" x2="61.8672" y2="48.8704" gradientUnits="userSpaceOnUse">
<stop stop-color="#CACACA"/>
<stop offset="1" stop-color="#7E7E7E"/>
</linearGradient>
</defs>
</svg>
