<svg width="32" height="32" viewBox="0 0 32 32" fill="none" xmlns="http://www.w3.org/2000/svg">
<path d="M7.05864 3.574C5.11042 4.80676 3.54382 6.4133 2.35886 8.39368C1.02472 10.6415 0.357666 13.1771 0.357666 16.0006C0.357666 18.8242 1.02472 21.3735 2.35886 23.6487C3.72024 25.8966 5.58538 27.6647 7.95417 28.9531C10.3502 30.2414 13.0321 30.8857 16 30.8857C18.9678 30.8857 21.6361 30.2414 24.0049 28.9531C26.3737 27.6647 28.2388 25.8966 29.6002 23.6487C30.9616 21.3735 31.6423 18.8242 31.6423 16.0006C31.6423 13.1771 30.9616 10.6415 29.6002 8.39368C28.4241 6.42802 26.8719 4.83065 24.9438 3.60158V15.8451C24.9445 15.8968 24.9442 15.9486 24.9442 16.0006C24.9442 17.7825 24.5494 19.3724 23.7599 20.7704C22.9975 22.1685 21.9356 23.265 20.5742 24.0599C19.2128 24.8275 17.6881 25.2113 16 25.2113C14.3119 25.2113 12.7871 24.8275 11.4257 24.0599C10.0643 23.265 8.98884 22.1685 8.1992 20.7704C7.43688 19.3724 7.05564 17.7825 7.05564 16.0006C7.05564 15.9095 7.05664 15.8189 7.05864 15.7288V3.574Z" fill="url(#paint0_linear_93_811)"/>
<path d="M16.0002 1.11437C14.1956 1.11437 12.6492 1.41219 12.6492 1.41219V12.1169C12.6492 13.9801 14.1495 15.4905 16.0002 15.4905C17.8508 15.4905 19.351 13.9801 19.351 12.1169V1.41219C19.351 1.41219 17.8047 1.11437 16.0002 1.11437Z" fill="url(#paint1_linear_93_811)"/>
<defs>
<linearGradient id="paint0_linear_93_811" x1="4.57429" y1="3.96206" x2="30.9336" y2="24.4352" gradientUnits="userSpaceOnUse">
<stop stop-color="#8ED078"/>
<stop offset="1" stop-color="#19B58F"/>
</linearGradient>
<linearGradient id="paint1_linear_93_811" x1="4.57429" y1="3.96206" x2="30.9336" y2="24.4352" gradientUnits="userSpaceOnUse">
<stop stop-color="#8ED078"/>
<stop offset="1" stop-color="#19B58F"/>
</linearGradient>
</defs>
</svg>
